<?xml version="1.0" encoding="utf-8"?><!-- Uploaded to: SVG Repo, www.svgrepo.com, Generator: SVG Repo Mixer Tools -->
<svg fill="#000000" width="800px" height="800px" viewBox="0 0 24 24" id="left-alt" data-name="Multi Color" xmlns="http://www.w3.org/2000/svg" class="icon multi-color"><title style="stroke-width: 2;">left alt</title><path id="secondary-fill" d="M12.19,4.64l1.05.79a1,1,0,0,1,.24,1.36L12,9h8a1,1,0,0,1,1,1v4a1,1,0,0,1-1,1H12l1.48,2.21a1,1,0,0,1-.24,1.36l-1.05.79L7.42,13.23a2,2,0,0,1,0-2.46Z" style="fill: rgb(44, 169, 188); stroke-width: 2;"></path><path id="primary-stroke" d="M10.65,3.72l2.46,1.85a1,1,0,0,1,.23,1.35L11.87,9.13h8a1,1,0,0,1,1,1v4a1,1,0,0,1-1,1h-8l1.47,2.22a1,1,0,0,1-.23,1.35l-2.46,1.84a1,1,0,0,1-1.39-.18L3.34,12.75a1,1,0,0,1,0-1.23L9.26,3.91A1,1,0,0,1,10.65,3.72Z" style="fill: none; stroke: rgb(0, 0, 0); stroke-linecap: round; stroke-linejoin: round; stroke-width: 2;"></path></svg>